<?xml version="1.0" encoding="utf-8"?>
<!-- Generator: Adobe Illustrator 24.3.0, SVG Export Plug-In . SVG Version: 6.00 Build 0)  -->
<svg version="1.1" id="Layer_1" xmlns="http://www.w3.org/2000/svg" xmlns:xlink="http://www.w3.org/1999/xlink" x="0px" y="0px"
	 viewBox="0 0 1080 1080" style="enable-background:new 0 0 1080 1080;" xml:space="preserve">
<style type="text/css">
	.st0{fill:url(#SVGID_1_);}
	.st1{fill:url(#SVGID_2_);}
</style>
<radialGradient id="SVGID_1_" cx="484.001" cy="8.376105e-04" r="1" gradientTransform="matrix(132.9555 652.0869 -652.4042 133.0203 -63680.8047 -315136.875)" gradientUnits="userSpaceOnUse">
	<stop  offset="0" style="stop-color:#1BA1E3"/>
	<stop  offset="1.000000e-04" style="stop-color:#1BA1E3"/>
	<stop  offset="0.3002" style="stop-color:#5489D6"/>
	<stop  offset="0.5455" style="stop-color:#9B72CB"/>
	<stop  offset="0.8254" style="stop-color:#D96570"/>
	<stop  offset="1" style="stop-color:#F49C46"/>
</radialGradient>
<path class="st0" d="M515.7,726.8l-42.4,99c-16.3,38.1-68.8,38.3-85.6,0.6L343.9,728C305,640.4,235.5,571,149.2,533.4l-119-51.9
	c-37.9-16.5-38.2-71.4-0.6-88.3l114.5-51.7c88.1-39.9,157.9-112.9,195-204L382,32.1c16-39.2,69.9-39.5,86.3-0.6l44.4,104.8
	c38.3,90.6,109,162.6,197.6,201.2l115.2,50.2c37.9,16.5,38.2,71.4,0.6,88.3l-118.2,53.4C621.9,568.4,553.4,638.7,515.7,726.8z"/>
<radialGradient id="SVGID_2_" cx="484.001" cy="8.376105e-04" r="1" gradientTransform="matrix(132.9555 652.0869 -652.4042 133.0203 -63680.8047 -315136.875)" gradientUnits="userSpaceOnUse">
	<stop  offset="0" style="stop-color:#1BA1E3"/>
	<stop  offset="1.000000e-04" style="stop-color:#1BA1E3"/>
	<stop  offset="0.3002" style="stop-color:#5489D6"/>
	<stop  offset="0.5455" style="stop-color:#9B72CB"/>
	<stop  offset="0.8254" style="stop-color:#D96570"/>
	<stop  offset="1" style="stop-color:#F49C46"/>
</radialGradient>
<path class="st1" d="M918.1,1035.2l-11.9,27.8c-8.7,20.4-36.9,20.5-45.9,0.3l-12.3-27.7c-22-49.3-61.1-88.6-109.8-109.8l-37.5-16.4
	c-20.2-8.8-20.4-38.1-0.3-47.3l35.1-15.9c49.6-22.5,89-63.6,109.9-114.9l12.3-30c8.5-20.9,37.4-21.1,46.3-0.3l12.6,30
	c21.6,51,61.4,91.7,111.4,113.5l35.2,15.4c20.2,8.8,20.4,38.1,0.3,47.3l-37.1,16.8C978,945.9,939.3,985.5,918.1,1035.2z"/>
</svg>
