<?xml version="1.0" encoding="utf-8"?>
<!-- Generator: Adobe Illustrator 24.3.0, SVG Export Plug-In . SVG Version: 6.00 Build 0)  -->
<svg version="1.1" id="Layer_1" xmlns="http://www.w3.org/2000/svg" xmlns:xlink="http://www.w3.org/1999/xlink" x="0px" y="0px"
	 viewBox="0 0 1080 1080" style="enable-background:new 0 0 1080 1080;" xml:space="preserve">
<style type="text/css">
	.st0{fill:url(#SVGID_1_);}
	.st1{fill:url(#SVGID_2_);}
</style>
<radialGradient id="SVGID_1_" cx="241.7558" cy="959.5674" r="1" gradientTransform="matrix(-130.6016 -652.5624 -652.88 130.6652 658465.875 32986.0547)" gradientUnits="userSpaceOnUse">
	<stop  offset="0" style="stop-color:#1BA1E3"/>
	<stop  offset="1.000000e-04" style="stop-color:#1BA1E3"/>
	<stop  offset="0.3002" style="stop-color:#5489D6"/>
	<stop  offset="0.5455" style="stop-color:#9B72CB"/>
	<stop  offset="0.8254" style="stop-color:#D96570"/>
	<stop  offset="1" style="stop-color:#F49C46"/>
</radialGradient>
<path class="st0" d="M564.3,355.1l42.8-98.8c16.4-38,68.9-38.1,85.6-0.3l43.4,98.5c38.6,87.7,107.8,157.4,194,195.3l118.8,52.3
	c37.8,16.6,37.9,71.5,0.3,88.3l-114.7,51.3C846.3,781.3,776.2,854,738.8,945l-43.3,105.3c-16.1,39.1-70,39.2-86.3,0.3l-44-105
	c-38-90.7-108.4-163-196.9-201.9l-115-50.6c-37.8-16.6-37.9-71.5-0.3-88.3l118.4-53C457.5,513.1,526.3,443,564.3,355.1z"/>
<radialGradient id="SVGID_2_" cx="241.7558" cy="959.5674" r="1" gradientTransform="matrix(-130.6016 -652.5624 -652.88 130.6652 658465.875 32986.0547)" gradientUnits="userSpaceOnUse">
	<stop  offset="0" style="stop-color:#1BA1E3"/>
	<stop  offset="1.000000e-04" style="stop-color:#1BA1E3"/>
	<stop  offset="0.3002" style="stop-color:#5489D6"/>
	<stop  offset="0.5455" style="stop-color:#9B72CB"/>
	<stop  offset="0.8254" style="stop-color:#D96570"/>
	<stop  offset="1" style="stop-color:#F49C46"/>
</radialGradient>
<path class="st1" d="M163,45.2l12-27.8c8.8-20.4,37-20.4,45.9-0.1L233.1,45c21.8,49.4,60.8,88.8,109.4,110.2l37.4,16.5
	c20.2,8.9,20.3,38.2,0.1,47.3l-35.2,15.8c-49.7,22.3-89.2,63.3-110.3,114.5l-12.4,30c-8.6,20.9-37.5,21-46.3,0.1l-12.5-30
	c-21.4-51.1-61.1-91.9-111-113.9L17.2,220c-20.2-8.9-20.3-38.2-0.1-47.3L54.3,156C102.8,134.3,141.6,94.8,163,45.2z"/>
</svg>
